<svg xmlns="http://www.w3.org/2000/svg" width="1687" height="1553"><path fill="none" stroke="#00f" stroke-linecap="round" stroke-linejoin="round" stroke-width="15.625" d="M 753 115 749 117 745 121 743 125 743 189 745 193 749 197 753 199 781 199 785 197 789 193 791 189 791 125 789 121 785 117 781 115 753 115"/><path fill="none" stroke="#00f" stroke-linecap="round" stroke-linejoin="round" stroke-width="15.625" d="M 1093 115 1089 117 1085 121 1083 125 1083 189 1085 193 1089 197 1093 199 1121 199 1125 197 1129 193 1131 189 1131 125 1129 121 1125 117 1121 115 1093 115"/><path fill="none" stroke="#00f" stroke-linecap="round" stroke-linejoin="round" stroke-width="15.625" d="M 885 153 873 158 865 166 860 178 860 192 861 196 865 204 873 212 881 216 885 217 899 217 903 216 911 212 919 204 923 196 924 192 924 178 923 174 919 166 911 158 899 153 885 153"/><path fill="none" stroke="#00f" stroke-linecap="round" stroke-linejoin="round" stroke-width="15.625" d="M 985 153 973 158 965 166 960 178 960 192 961 196 965 204 973 212 981 216 985 217 999 217 1003 216 1011 212 1019 204 1023 196 1024 192 1024 178 1023 174 1019 166 1011 158 999 153 985 153"/><path fill="none" stroke="#00f" stroke-linecap="round" stroke-linejoin="round" stroke-width="15.625" d="M 574 178 567 181 562 185 557 193 556 204 555 205 278 205 277 204 277 192 273 188 193 188 189 192 189 248 193 252 273 252 277 248 277 239 278 238 555 238 556 239 557 251 562 259 569 264 574 266 666 266 671 264 678 259 682 253 684 247 684 197 682 191 677 184 666 178 574 178"/><path fill="none" stroke="#00f" stroke-linecap="round" stroke-linejoin="round" stroke-width="15.625" d="M 1211 178 1204 181 1199 185 1195 191 1193 197 1193 247 1195 253 1200 260 1211 266 1303 266 1308 264 1315 259 1319 253 1321 247 1321 197 1319 191 1314 184 1303 178 1211 178"/><path fill="none" stroke="#00f" stroke-linecap="round" stroke-linejoin="round" stroke-width="15.625" d="M 885 253 873 258 865 266 860 278 860 292 861 296 865 304 873 312 881 316 885 317 899 317 903 316 911 312 919 304 923 296 924 292 924 278 923 274 919 266 911 258 899 253 885 253"/><path fill="none" stroke="#00f" stroke-linecap="round" stroke-linejoin="round" stroke-width="15.625" d="M 985 253 973 258 965 266 960 278 960 292 961 296 965 304 973 312 981 316 985 317 999 317 1003 316 1011 312 1019 304 1023 296 1024 292 1024 278 1023 274 1019 266 1011 258 999 253 985 253"/><path fill="none" stroke="#00f" stroke-linecap="round" stroke-linejoin="round" stroke-width="15.625" d="M 753 275 749 277 745 281 743 285 743 349 745 353 749 357 753 359 781 359 785 357 789 353 791 349 791 285 789 281 785 277 781 275 753 275"/><path fill="none" stroke="#00f" stroke-linecap="round" stroke-linejoin="round" stroke-width="15.625" d="M 1093 275 1089 277 1085 281 1083 285 1083 349 1085 353 1089 357 1093 359 1121 359 1125 357 1129 353 1131 349 1131 285 1129 281 1125 277 1121 275 1093 275"/><path fill="none" stroke="#00f" stroke-linecap="round" stroke-linejoin="round" stroke-width="15.625" d="M 574 278 563 284 558 291 556 297 556 307 555 308 393 308 389 310 384 315 382 319 382 1207 384 1211 389 1216 393 1218 778 1218 779 1219 779 1274 781 1277 783 1278 879 1278 883 1274 883 1208 882 1206 879 1204 819 1204 804 1188 798 1185 416 1185 415 1184 415 342 416 341 555 341 556 342 557 351 562 359 569 364 574 366 666 366 671 364 678 359 682 353 684 347 684 297 682 291 677 284 666 278 574 278"/><path fill="none" stroke="#00f" stroke-linecap="round" stroke-linejoin="round" stroke-width="15.625" d="M 1211 278 1204 281 1199 285 1195 291 1193 297 1193 347 1194 351 1199 359 1208 365 1211 366 1303 366 1308 364 1315 359 1320 351 1321 342 1322 341 1445 341 1477 373 1477 1044 1476 1045 1144 1045 1143 1044 1143 1028 1139 1024 1043 1024 1039 1028 1039 1094 1043 1098 1139 1098 1143 1094 1143 1079 1144 1078 1386 1078 1398 1090 1398 1390 1397 1391 261 1391 250 1380 250 620 251 619 273 619 277 615 277 559 273 555 193 555 189 559 189 615 193 619 216 619 217 620 217 1393 220 1399 241 1421 247 1424 1420 1424 1424 1422 1429 1417 1431 1413 1431 1079 1432 1078 1490 1078 1496 1075 1507 1064 1510 1058 1510 359 1507 353 1465 311 1459 308 1322 308 1321 307 1321 297 1319 291 1314 284 1303 278 1211 278"/><path fill="none" stroke="#00f" stroke-linecap="round" stroke-linejoin="round" stroke-width="15.625" d="M 193 318 189 322 189 378 193 382 216 382 217 383 217 424 216 425 193 425 189 429 189 485 193 489 273 489 277 485 277 429 273 425 251 425 250 424 250 383 251 382 273 382 277 378 277 322 273 318 193 318"/><path fill="none" stroke="#00f" stroke-linecap="round" stroke-linejoin="round" stroke-width="15.625" d="M 574 378 567 381 562 385 558 391 556 397 556 447 558 453 563 460 574 466 666 466 671 464 678 459 682 453 684 447 684 397 682 391 677 384 666 378 574 378"/><path fill="none" stroke="#00f" stroke-linecap="round" stroke-linejoin="round" stroke-width="15.625" d="M 1211 378 1204 381 1199 385 1195 391 1193 397 1193 447 1195 453 1200 460 1211 466 1303 466 1308 464 1315 459 1319 453 1321 447 1321 397 1319 391 1314 384 1303 378 1211 378"/><path fill="none" stroke="#00f" stroke-linecap="round" stroke-linejoin="round" stroke-width="15.625" d="M 574 478 567 481 562 485 558 491 556 497 556 547 558 553 563 560 574 566 666 566 671 564 678 559 682 553 684 547 684 497 682 491 677 484 666 478 574 478"/><path fill="none" stroke="#00f" stroke-linecap="round" stroke-linejoin="round" stroke-width="15.625" d="M 1211 478 1204 481 1199 485 1195 491 1193 497 1193 547 1195 553 1200 560 1211 566 1303 566 1308 564 1315 559 1319 553 1321 547 1321 497 1319 491 1314 484 1303 478 1211 478"/><path fill="none" stroke="#00f" stroke-linecap="round" stroke-linejoin="round" stroke-width="15.625" d="M 574 578 567 581 562 585 558 591 556 597 556 647 558 653 563 660 574 666 666 666 671 664 678 659 682 653 684 647 684 597 682 591 677 584 666 578 574 578"/><path fill="none" stroke="#00f" stroke-linecap="round" stroke-linejoin="round" stroke-width="15.625" d="M 1211 578 1204 581 1199 585 1195 591 1193 597 1193 647 1195 653 1200 660 1211 666 1303 666 1308 664 1315 659 1319 653 1321 647 1321 597 1319 591 1314 584 1303 578 1211 578"/><path fill="none" stroke="#00f" stroke-linecap="round" stroke-linejoin="round" stroke-width="15.625" d="M 574 678 567 681 562 685 558 691 556 697 556 747 558 753 563 760 574 766 666 766 671 764 678 759 682 753 684 747 684 697 682 691 677 684 666 678 574 678"/><path fill="none" stroke="#00f" stroke-linecap="round" stroke-linejoin="round" stroke-width="15.625" d="M 1211 678 1204 681 1199 685 1195 691 1193 697 1193 747 1195 753 1200 760 1211 766 1303 766 1308 764 1315 759 1319 753 1321 747 1321 697 1319 691 1314 684 1303 678 1211 678"/><path fill="none" stroke="#00f" stroke-linecap="round" stroke-linejoin="round" stroke-width="15.625" d="M 574 777 567 780 562 784 558 790 556 796 556 846 558 852 563 859 574 865 666 865 671 863 678 858 682 852 684 846 684 796 682 790 677 783 666 777 574 777"/><path fill="none" stroke="#00f" stroke-linecap="round" stroke-linejoin="round" stroke-width="15.625" d="M 1211 777 1204 780 1199 784 1195 790 1193 796 1193 846 1195 852 1200 859 1211 865 1303 865 1308 863 1315 858 1319 852 1321 846 1321 796 1319 790 1314 783 1303 777 1211 777"/><path fill="none" stroke="#00f" stroke-linecap="round" stroke-linejoin="round" stroke-width="15.625" d="M 876 808 872 810 867 815 865 819 865 891 867 895 872 900 876 902 908 902 912 900 917 895 919 891 919 819 917 815 912 810 908 808 876 808"/><path fill="none" stroke="#00f" stroke-linecap="round" stroke-linejoin="round" stroke-width="15.625" d="M 976 808 972 810 967 815 965 819 965 891 967 895 972 900 976 902 1008 902 1012 900 1017 895 1019 891 1019 819 1017 815 1012 810 1008 808 976 808"/><path fill="none" stroke="#00f" stroke-linecap="round" stroke-linejoin="round" stroke-width="15.625" d="M 783 1024 779 1028 779 1094 781 1097 783 1098 879 1098 882 1096 883 1094 883 1028 881 1025 879 1024 783 1024"/><path fill="none" stroke="#00f" stroke-linecap="round" stroke-linejoin="round" stroke-width="15.625" d="M 1043 1204 1039 1208 1039 1274 1041 1277 1043 1278 1139 1278 1142 1276 1143 1274 1143 1208 1141 1205 1139 1204 1043 1204"/><path fill="none" stroke="red" stroke-linecap="round" stroke-linejoin="round" stroke-width="31.25" d="M 154 106 154 1468 1578 1468 1578 106 1125 106 1130 108 1138 116 1141 122 1141 192 1138 198 1130 206 1124 209 1090 209 1084 206 1076 198 1073 192 1073 122 1076 116 1084 108 1089 106 785 106 790 108 798 116 801 122 801 192 798 198 790 206 784 209 750 209 744 206 736 198 733 192 733 122 736 116 744 108 749 106 154 106"/><path fill="none" stroke="red" stroke-linecap="round" stroke-linejoin="round" stroke-width="31.25" d="M 881 144 882 143 902 143 916 149 928 161 933 171 934 175 934 195 933 199 928 209 916 221 906 226 902 227 882 227 878 226 868 221 856 209 851 199 850 195 850 175 856 161 868 149 878 144 881 144"/><path fill="none" stroke="red" stroke-linecap="round" stroke-linejoin="round" stroke-width="31.25" d="M 981 144 982 143 1002 143 1016 149 1028 161 1033 171 1034 175 1034 195 1033 199 1028 209 1016 221 1006 226 1002 227 982 227 978 226 968 221 956 209 951 199 950 195 950 175 956 161 968 149 978 144 981 144"/><path fill="none" stroke="red" stroke-linecap="round" stroke-linejoin="round" stroke-width="31.25" d="M 570 169 571 168 669 168 678 172 687 180 691 186 694 194 694 250 693 254 687 264 682 269 677 272 682 275 687 280 691 286 694 294 694 350 693 354 687 364 682 369 677 372 682 375 687 380 691 386 694 394 694 450 693 454 687 464 682 469 677 472 682 475 687 480 691 486 694 494 694 550 693 554 687 564 682 569 677 572 682 575 687 580 691 586 694 594 694 650 693 654 687 664 682 669 677 672 682 675 687 680 691 686 694 694 694 750 693 754 687 764 682 769 678 771 687 779 691 785 694 793 694 849 693 853 687 863 682 868 669 875 571 875 558 868 549 857 546 849 546 793 547 789 553 779 562 771 558 769 553 764 549 758 546 750 546 694 547 690 553 680 558 675 563 672 558 669 553 664 549 658 546 650 546 594 547 590 553 580 558 575 563 572 558 569 553 564 549 558 546 550 546 494 547 490 553 480 558 475 563 472 558 469 553 464 549 458 546 450 546 394 547 390 553 380 558 375 563 372 558 369 553 364 547 354 547 351 425 351 425 1175 801 1175 809 1179 823 1194 882 1194 886 1196 891 1201 893 1205 893 1277 891 1281 886 1286 882 1288 780 1288 776 1286 771 1281 769 1277 769 1228 390 1228 384 1225 375 1216 372 1210 372 316 375 310 384 301 390 298 546 298 546 294 549 286 553 280 558 275 563 272 558 269 553 264 547 254 546 248 287 248 287 251 285 255 280 260 276 262 190 262 186 260 181 255 179 251 179 189 181 185 186 180 190 178 276 178 280 180 285 185 287 189 287 195 546 195 547 190 553 180 562 172 570 169"/><path fill="none" stroke="red" stroke-linecap="round" stroke-linejoin="round" stroke-width="31.25" d="M 1207 169 1208 168 1306 168 1315 172 1324 180 1328 186 1331 194 1331 250 1330 254 1324 264 1319 269 1314 272 1319 275 1328 286 1330 290 1331 298 1462 298 1470 302 1516 348 1520 356 1520 1061 1516 1069 1501 1084 1493 1088 1441 1088 1441 1416 1438 1422 1429 1431 1423 1434 244 1434 236 1430 211 1404 207 1396 207 629 190 629 186 627 181 622 179 618 179 556 181 552 186 547 190 545 276 545 280 547 285 552 287 556 287 618 285 622 280 627 276 629 260 629 260 1376 265 1381 1388 1381 1388 1094 1382 1088 1153 1088 1153 1097 1151 1101 1146 1106 1142 1108 1040 1108 1036 1106 1031 1101 1029 1097 1029 1025 1031 1021 1036 1016 1040 1014 1142 1014 1146 1016 1151 1021 1153 1025 1153 1035 1467 1035 1467 377 1441 351 1330 351 1330 354 1324 364 1319 369 1314 372 1319 375 1324 380 1328 386 1331 394 1331 450 1330 454 1324 464 1319 469 1314 472 1319 475 1324 480 1328 486 1331 494 1331 550 1330 554 1324 564 1319 569 1314 572 1319 575 1324 580 1328 586 1331 594 1331 650 1330 654 1324 664 1319 669 1314 672 1319 675 1324 680 1328 686 1331 694 1331 750 1330 754 1324 764 1319 769 1315 771 1324 779 1328 785 1331 793 1331 849 1328 857 1319 868 1306 875 1208 875 1195 868 1190 863 1184 853 1183 849 1183 793 1184 789 1190 779 1199 771 1195 769 1190 764 1186 758 1183 750 1183 694 1184 690 1190 680 1195 675 1200 672 1195 669 1190 664 1186 658 1183 650 1183 594 1184 590 1190 580 1195 575 1200 572 1195 569 1190 564 1186 558 1183 550 1183 494 1184 490 1190 480 1195 475 1200 472 1195 469 1190 464 1186 458 1183 450 1183 394 1184 390 1190 380 1195 375 1200 372 1195 369 1190 364 1186 358 1183 350 1183 294 1184 290 1190 280 1195 275 1200 272 1195 269 1190 264 1185 256 1183 250 1183 194 1184 190 1190 180 1199 172 1207 169"/><path fill="none" stroke="red" stroke-linecap="round" stroke-linejoin="round" stroke-width="31.25" d="M 881 244 882 243 902 243 916 249 928 261 933 271 934 275 934 295 933 299 928 309 916 321 906 326 902 327 882 327 878 326 868 321 856 309 851 299 850 295 850 275 856 261 868 249 878 244 881 244"/><path fill="none" stroke="red" stroke-linecap="round" stroke-linejoin="round" stroke-width="31.25" d="M 981 244 982 243 1002 243 1016 249 1028 261 1033 271 1034 275 1034 295 1033 299 1028 309 1016 321 1006 326 1002 327 982 327 978 326 968 321 956 309 951 299 950 295 950 275 956 261 968 249 978 244 981 244"/><path fill="none" stroke="red" stroke-linecap="round" stroke-linejoin="round" stroke-width="31.25" d="M 749 266 750 265 784 265 790 268 798 276 801 282 801 352 798 358 790 366 784 369 750 369 744 366 736 358 733 352 733 282 736 276 744 268 749 266"/><path fill="none" stroke="red" stroke-linecap="round" stroke-linejoin="round" stroke-width="31.25" d="M 1089 266 1090 265 1124 265 1130 268 1138 276 1141 282 1141 352 1138 358 1130 366 1124 369 1090 369 1084 366 1076 358 1073 352 1073 282 1076 276 1084 268 1089 266"/><path fill="none" stroke="red" stroke-linecap="round" stroke-linejoin="round" stroke-width="31.25" d="M 189 309 190 308 276 308 280 310 285 315 287 319 287 381 285 385 280 390 276 392 260 392 260 415 276 415 280 417 285 422 287 426 287 488 285 492 280 497 276 499 190 499 186 497 181 492 179 488 179 426 181 422 186 417 190 415 207 415 207 392 190 392 186 390 181 385 179 381 179 319 181 315 186 310 189 309"/><path fill="none" stroke="red" stroke-linecap="round" stroke-linejoin="round" stroke-width="31.25" d="M 872 799 873 798 911 798 917 801 926 810 929 816 929 894 926 900 917 909 911 912 873 912 867 909 858 900 855 894 855 816 858 810 867 801 872 799"/><path fill="none" stroke="red" stroke-linecap="round" stroke-linejoin="round" stroke-width="31.25" d="M 972 799 973 798 1011 798 1017 801 1026 810 1029 816 1029 894 1026 900 1017 909 1011 912 973 912 967 909 958 900 955 894 955 816 958 810 967 801 972 799"/><path fill="none" stroke="red" stroke-linecap="round" stroke-linejoin="round" stroke-width="31.25" d="M 779 1015 780 1014 882 1014 886 1016 891 1021 893 1025 893 1097 891 1101 886 1106 882 1108 780 1108 776 1106 771 1101 769 1097 769 1025 771 1021 776 1016 779 1015"/><path fill="none" stroke="red" stroke-linecap="round" stroke-linejoin="round" stroke-width="31.25" d="M 1039 1195 1040 1194 1142 1194 1146 1196 1151 1201 1153 1205 1153 1277 1151 1281 1146 1286 1142 1288 1040 1288 1036 1286 1031 1281 1029 1277 1029 1205 1031 1201 1036 1196 1039 1195"/><path fill="none" stroke="red" stroke-linecap="round" stroke-linejoin="round" stroke-width="31.25" d="M 170 122 170 174 178 166 188 162 278 162 282 163 292 169 300 179 535 179 539 172 546 164 554 158 569 152 671 152 686 158 694 164 701 172 708 184 710 192 710 252 708 260 701 271 701 273 708 284 710 292 710 352 708 360 701 371 701 373 708 384 710 392 710 452 708 460 701 471 701 473 708 484 710 492 710 552 708 560 701 571 701 573 708 584 710 592 710 652 708 660 701 671 701 673 708 684 710 692 710 752 708 760 701 771 708 783 710 791 710 851 708 859 698 875 690 882 678 889 671 891 569 891 556 886 546 879 539 871 532 859 530 851 530 791 532 783 539 771 532 760 530 752 530 692 532 684 539 673 539 671 532 660 530 652 530 592 532 584 539 573 539 571 532 560 530 552 530 492 532 484 539 473 539 471 532 460 530 452 530 392 532 384 539 373 539 371 536 367 441 367 441 1159 803 1159 817 1165 830 1178 884 1178 888 1179 894 1182 902 1189 905 1193 909 1203 909 1279 908 1283 902 1293 894 1300 884 1304 778 1304 774 1303 764 1297 757 1289 754 1283 753 1279 753 1244 388 1244 376 1239 364 1228 361 1224 356 1212 356 314 357 310 364 298 376 287 388 282 533 282 539 273 539 271 534 264 298 264 288 274 278 278 188 278 178 274 170 266 170 304 178 296 188 292 278 292 282 293 292 299 299 307 303 317 303 383 299 393 289 403 299 414 303 424 303 490 299 500 288 511 278 515 188 515 178 511 170 503 170 541 178 533 188 529 278 529 282 530 292 536 299 544 303 554 303 620 302 624 299 630 292 638 282 644 276 645 276 1365 1372 1365 1372 1104 1167 1104 1165 1109 1158 1117 1154 1120 1144 1124 1038 1124 1034 1123 1024 1117 1017 1109 1013 1099 1013 1023 1014 1019 1020 1009 1028 1002 1038 998 1144 998 1148 999 1158 1005 1165 1013 1168 1019 1451 1019 1451 384 1434 367 1341 367 1338 371 1338 373 1345 384 1347 392 1347 452 1345 460 1338 471 1338 473 1345 484 1347 492 1347 552 1345 560 1338 571 1338 573 1345 584 1347 592 1347 652 1345 660 1338 671 1338 673 1345 684 1347 692 1347 752 1345 760 1338 771 1345 783 1347 791 1347 851 1345 859 1342 865 1331 879 1321 886 1308 891 1206 891 1193 886 1183 879 1176 871 1169 859 1167 851 1167 791 1169 783 1176 771 1169 760 1167 752 1167 692 1169 684 1176 673 1176 671 1169 660 1167 652 1167 592 1169 584 1176 573 1176 571 1169 560 1167 552 1167 492 1169 484 1176 473 1176 471 1169 460 1167 452 1167 392 1169 384 1176 373 1176 371 1169 360 1167 352 1167 292 1169 284 1176 273 1176 271 1169 260 1167 252 1167 192 1169 184 1179 168 1191 158 1206 152 1308 152 1323 158 1331 164 1338 172 1345 184 1347 192 1347 252 1345 260 1338 271 1338 273 1344 282 1464 282 1468 283 1482 291 1527 336 1530 340 1536 354 1536 1063 1535 1067 1527 1081 1509 1098 1495 1104 1457 1104 1457 1418 1452 1430 1441 1442 1437 1445 1425 1450 242 1450 228 1444 200 1416 197 1412 191 1398 191 645 184 644 178 641 170 633 170 1452 1562 1452 1562 122 1157 122 1157 194 1156 198 1152 206 1142 217 1138 220 1126 225 1088 225 1084 224 1072 217 1062 206 1057 194 1057 122 817 122 817 194 816 198 812 206 802 217 798 220 786 225 748 225 744 224 732 217 722 206 717 194 717 122 170 122"/><path fill="none" stroke="red" stroke-linecap="round" stroke-linejoin="round" stroke-width="31.25" d="M 879 128 880 127 904 127 912 129 928 138 939 149 942 154 952 141 960 135 972 129 980 127 1004 127 1012 129 1024 135 1042 153 1048 165 1050 173 1050 197 1048 205 1042 217 1028 232 1023 235 1028 238 1039 249 1048 265 1050 273 1050 297 1048 305 1042 317 1024 335 1012 341 1004 343 980 343 972 341 960 335 945 321 942 316 939 321 928 332 912 341 904 343 880 343 872 341 860 335 842 317 836 305 834 297 834 273 836 265 842 253 852 241 861 235 856 232 845 221 836 205 834 197 834 173 836 165 842 153 848 145 860 135 872 129 879 128"/><path fill="none" stroke="red" stroke-linecap="round" stroke-linejoin="round" stroke-width="31.25" d="M 942 216 939 221 928 232 923 235 928 238 939 249 942 254 948 245 961 235 956 232 945 221 942 216"/><path fill="none" stroke="red" stroke-linecap="round" stroke-linejoin="round" stroke-width="31.25" d="M 747 250 748 249 786 249 790 250 802 257 812 268 816 276 817 280 817 354 816 358 809 370 798 380 790 384 786 385 748 385 744 384 732 377 722 366 718 358 717 354 717 280 718 276 722 268 732 257 744 250 747 250"/><path fill="none" stroke="red" stroke-linecap="round" stroke-linejoin="round" stroke-width="31.25" d="M 1087 250 1088 249 1126 249 1130 250 1142 257 1152 268 1156 276 1157 280 1157 354 1156 358 1149 370 1138 380 1130 384 1126 385 1088 385 1084 384 1072 377 1062 366 1058 358 1057 354 1057 280 1058 276 1062 268 1072 257 1084 250 1087 250"/><path fill="none" stroke="red" stroke-linecap="round" stroke-linejoin="round" stroke-width="31.25" d="M 170 396 170 411 177 404 170 396"/><path fill="none" stroke="red" stroke-linecap="round" stroke-linejoin="round" stroke-width="31.25" d="M 870 783 871 782 913 782 917 783 929 790 937 798 942 807 947 798 955 790 959 787 971 782 1013 782 1025 787 1029 790 1040 802 1045 814 1045 896 1044 900 1037 912 1025 923 1013 928 971 928 967 927 955 920 947 912 942 903 937 912 929 920 925 923 913 928 871 928 867 927 855 920 844 908 839 896 839 814 840 810 847 798 859 787 867 783 870 783"/><path fill="none" stroke="red" stroke-linecap="round" stroke-linejoin="round" stroke-width="31.25" d="M 777 999 778 998 884 998 888 999 898 1005 905 1013 909 1023 909 1099 908 1103 902 1113 894 1120 884 1124 778 1124 774 1123 764 1117 757 1109 753 1099 753 1023 754 1019 760 1009 768 1002 774 999 777 999"/><path fill="none" stroke="red" stroke-linecap="round" stroke-linejoin="round" stroke-width="31.25" d="M 1037 1179 1038 1178 1144 1178 1148 1179 1158 1185 1165 1193 1169 1203 1169 1279 1168 1283 1162 1293 1154 1300 1144 1304 1038 1304 1034 1303 1024 1297 1017 1289 1013 1279 1013 1203 1014 1199 1020 1189 1028 1182 1034 1179 1037 1179"/><path fill="none" stroke="red" stroke-linecap="round" stroke-linejoin="round" stroke-width="31.25" d="M 185 137 185 148 186 147 280 147 292 151 297 154 308 164 527 164 530 159 545 146 552 142 567 137 673 137 690 143 702 152 702 137 185 137"/><path fill="none" stroke="red" stroke-linecap="round" stroke-linejoin="round" stroke-width="31.25" d="M 832 137 832 142 836 137 832 137"/><path fill="none" stroke="red" stroke-linecap="round" stroke-linejoin="round" stroke-width="31.25" d="M 1172 137 1172 154 1187 143 1204 137 1310 137 1327 143 1340 152 1347 159 1357 174 1360 182 1362 190 1362 254 1358 267 1466 267 1473 269 1482 273 1491 279 1539 327 1545 336 1547 342 1547 137 1172 137"/><path fill="none" stroke="red" stroke-linecap="round" stroke-linejoin="round" stroke-width="31.25" d="M 824 214 821 219 811 229 802 235 796 237 802 239 811 245 823 258 830 244 837 235 830 226 824 214"/><path fill="none" stroke="red" stroke-linecap="round" stroke-linejoin="round" stroke-width="31.25" d="M 1056 222 1051 230 1046 235 1051 240 1057 250 1058 250 1067 242 1078 237 1067 232 1056 222"/><path fill="none" stroke="red" stroke-linecap="round" stroke-linejoin="round" stroke-width="31.25" d="M 1152 228 1142 235 1136 237 1142 239 1152 246 1152 228"/><path fill="none" stroke="red" stroke-linecap="round" stroke-linejoin="round" stroke-width="31.25" d="M 725 230 725 244 732 239 738 237 732 235 725 230"/><path fill="none" stroke="red" stroke-linecap="round" stroke-linejoin="round" stroke-width="31.25" d="M 305 279 298 285 311 298 314 303 318 315 318 385 314 397 310 403 314 410 318 422 318 492 314 504 311 509 298 522 311 535 314 540 318 552 318 622 314 634 308 643 301 650 291 656 291 1350 1357 1350 1357 1119 1176 1119 1163 1132 1158 1135 1146 1139 1036 1139 1032 1138 1024 1135 1015 1129 1005 1118 999 1105 998 1101 998 1021 1002 1009 1008 1000 1019 990 1024 987 1036 983 1146 983 1158 987 1163 990 1177 1004 1436 1004 1436 390 1428 382 1360 382 1362 390 1362 454 1359 465 1355 472 1359 479 1362 490 1362 554 1359 565 1355 572 1359 579 1362 590 1362 654 1359 665 1355 672 1359 679 1362 690 1362 754 1359 765 1356 771 1362 789 1362 853 1357 869 1347 884 1340 891 1325 901 1310 906 1204 906 1189 901 1174 891 1164 880 1155 864 1152 853 1152 789 1158 771 1155 765 1152 754 1152 690 1155 679 1159 672 1155 665 1152 654 1152 590 1155 579 1159 572 1155 565 1152 554 1152 490 1155 479 1159 472 1155 465 1152 454 1152 390 1153 387 1142 395 1128 400 1086 400 1074 396 1063 389 1053 379 1047 370 1042 356 1042 339 1037 344 1028 350 1017 355 1006 358 978 358 970 356 951 347 942 339 933 347 914 356 906 358 878 358 862 353 851 347 832 328 832 356 828 368 821 379 811 389 802 395 788 400 746 400 734 396 724 389 725 390 725 454 722 465 718 472 722 479 725 490 725 554 722 565 718 572 722 579 725 590 725 654 722 665 718 672 722 679 725 690 725 754 722 765 719 771 725 789 725 853 720 869 710 884 703 891 688 901 673 906 567 906 552 901 537 891 530 884 520 869 515 853 515 789 518 778 521 772 515 754 515 690 518 679 522 672 518 665 515 654 515 590 518 579 522 572 518 565 515 554 515 490 518 479 522 472 518 465 515 454 515 390 517 382 456 382 456 1144 805 1144 821 1150 830 1156 837 1163 886 1163 898 1167 907 1173 917 1184 920 1189 924 1201 924 1281 920 1293 914 1302 903 1312 898 1315 886 1319 776 1319 764 1315 759 1312 745 1298 742 1293 738 1281 738 1259 386 1259 374 1255 363 1248 352 1237 345 1226 341 1214 341 312 345 300 349 293 362 279 305 279"/><path fill="none" stroke="red" stroke-linecap="round" stroke-linejoin="round" stroke-width="31.25" d="M 868 768 869 767 915 767 929 772 942 782 955 772 969 767 1015 767 1027 771 1038 778 1052 793 1056 800 1060 812 1060 898 1056 910 1049 921 1034 935 1027 939 1015 943 969 943 955 938 942 928 929 938 915 943 869 943 857 939 846 932 832 917 828 910 824 898 824 812 828 800 835 789 850 775 862 769 868 768"/><path fill="none" stroke="red" stroke-linecap="round" stroke-linejoin="round" stroke-width="31.25" d="M 775 984 776 983 886 983 898 987 903 990 914 1000 920 1009 924 1021 924 1101 920 1113 917 1118 907 1129 898 1135 886 1139 776 1139 764 1135 759 1132 748 1122 742 1113 738 1101 738 1021 742 1009 748 1000 755 993 764 987 772 984 775 984"/><path fill="none" stroke="red" stroke-linecap="round" stroke-linejoin="round" stroke-width="31.25" d="M 1547 1075 1545 1081 1539 1090 1522 1107 1513 1113 1497 1119 1472 1119 1472 1420 1468 1432 1465 1437 1547 1437 1547 1075"/><path fill="none" stroke="red" stroke-linecap="round" stroke-linejoin="round" stroke-width="31.25" d="M 1035 1164 1036 1163 1146 1163 1158 1167 1163 1170 1174 1180 1180 1189 1184 1201 1184 1281 1180 1293 1177 1298 1167 1309 1158 1315 1146 1319 1036 1319 1024 1315 1019 1312 1008 1302 1002 1293 998 1281 998 1201 1002 1189 1008 1180 1015 1173 1024 1167 1032 1164 1035 1164"/><path fill="none" stroke="red" stroke-linecap="round" stroke-linejoin="round" stroke-width="31.25" d="M 185 1420 185 1437 200 1437 188 1425 185 1420"/><path fill="none" stroke="green" stroke-linecap="round" stroke-linejoin="round" stroke-width="31.25" d="M 134 76 130 78 126 82 124 86 124 1488 126 1492 130 1496 134 1498 1598 1498 1602 1496 1606 1492 1608 1488 1608 86 1606 82 1602 78 1598 76 134 76"/></svg>