<svg xmlns="http://www.w3.org/2000/svg" viewBox="0 0 607.22 456.22"><defs><style>.cls-1{fill:#efefef;stroke:#d9d9d9}.cls-1,.cls-2,.cls-3,.cls-4,.cls-5,.cls-6,.cls-7,.cls-8,.cls-9{stroke-miterlimit:10}.cls-2{fill:#b3b3b3}.cls-2,.cls-6,.cls-7{stroke:#4d4d4d}.cls-3,.cls-4{fill:red;stroke:red}.cls-3{opacity:.5}.cls-5{fill:#cfe5ae;stroke:#64a70b}.cls-6,.cls-7,.cls-9{fill:none}.cls-7{stroke-dasharray:2 2}.cls-8{fill:#ffe4b3;stroke:#ffbf3f}.cls-9{stroke:#666}.cls-10{fill:#666}.cls-11{font-size:28px}.cls-11,.cls-12,.cls-13{fill:#333;font-family:Roboto-Regular,Roboto}.cls-12{font-size:26px}.cls-13{font-size:16px}.cls-14,.cls-15,.cls-16{letter-spacing:-.01em}.cls-17{letter-spacing:.01em}</style></defs><g id="Layer_2" data-name="Layer 2"><rect width="606.22" height="132.22" x=".5" y=".5" class="cls-1" rx="12.33"/><rect width="606.22" height="314.42" x=".5" y="141.31" class="cls-1" rx="19.01"/></g><g id="Layer_1" data-name="Layer 1"><rect width="21.33" height="96.89" x="332.06" y="26.08" class="cls-2"/><polyline points="34.17 74.53 331.06 26.08 331.06 122.97 34.17 74.53" class="cls-3"/><circle cx="34.17" cy="74.53" r="6.17" class="cls-4"/><circle cx="235.18" cy="74.53" r="31.33" class="cls-5"/><rect width="21.33" height="96.89" x="332.06" y="183.03" class="cls-2"/><polyline points="34.17 195.19 331.06 183.03 331.06 279.92 34.17 195.19" class="cls-3"/><circle cx="34.17" cy="195.19" r="6.17" class="cls-4"/><circle cx="235.18" cy="199.47" r="50.61" class="cls-5"/><line x1="40.33" x2="41.33" y1="74.53" y2="74.53" class="cls-6"/><line x1="43.33" x2="330.06" y1="74.53" y2="74.53" class="cls-7"/><line x1="331.06" x2="332.06" y1="74.53" y2="74.53" class="cls-6"/><line x1="40.33" x2="41.33" y1="195.19" y2="195.19" class="cls-6"/><line x1="43.33" x2="330.06" y1="195.19" y2="195.19" class="cls-7"/><line x1="331.06" x2="332.06" y1="195.19" y2="195.19" class="cls-6"/><rect width="21.33" height="96.89" x="332.06" y="334.25" class="cls-2"/><polyline points="34.17 346.42 331.06 334.25 331.06 431.14 34.17 346.42" class="cls-3"/><circle cx="34.17" cy="346.42" r="6.17" class="cls-4"/><circle cx="235.18" cy="350.69" r="50.61" class="cls-8"/><line x1="40.33" x2="41.33" y1="346.42" y2="346.42" class="cls-6"/><line x1="43.33" x2="330.06" y1="346.42" y2="346.42" class="cls-7"/><line x1="331.06" x2="332.06" y1="346.42" y2="346.42" class="cls-6"/><path d="M201.74,211.53a50.61,50.61,0,1,1,101.22,0" class="cls-8" transform="translate(-17.17 -12.06)"/><path d="M201.74,362.75a50.61,50.61,0,1,1,101.22,0" class="cls-5" transform="translate(-17.17 -12.06)"/><path d="M317,211.42a64.62,64.62,0,0,1-102.39,52.42" class="cls-9" transform="translate(-17.17 -12.06)"/><polygon points="204.14 252.45 203.88 253.42 197.55 251.75 201.33 257.1 200.51 257.68 195.15 250.09 204.14 252.45" class="cls-10"/><path d="M317,362.44a64.62,64.62,0,0,1-102.39,52.43" class="cls-9" transform="translate(-17.17 -12.06)"/><polygon points="204.14 403.48 203.88 404.44 197.55 402.78 201.33 408.13 200.51 408.7 195.15 401.11 204.14 403.48" class="cls-10"/><text class="cls-11" transform="translate(169.81 275.85)">0°</text><text class="cls-11" transform="translate(156.91 435.85)">180°</text><text class="cls-12" transform="translate(407.23 66.69)">Normal scan</text><text class="cls-13" transform="translate(6.33 59.69)">Sou<tspan x="27.44" y="0" class="cls-14">r</tspan><tspan x="32.7" y="0">ce</tspan></text><text class="cls-13" transform="translate(314.87 18.49)">Detec<tspan x="41.05" y="0" class="cls-15">t</tspan><tspan x="46.12" y="0">or</tspan></text><text class="cls-12" transform="translate(416.22 300.08)">Offset scan<tspan x="0" y="31.2">(~ 2X F</tspan><tspan x="84.72" y="31.2" class="cls-16">O</tspan><tspan x="102.31" y="31.2" class="cls-17">V</tspan><tspan x="119.11" y="31.2">)</tspan></text></g></svg>